# 3ds Max Wavefront OBJ Exporter v0.97b - (c)2007 guruware
# File Created: 31.12.2012 16:42:42

mtllib brush.mtl

#
# object OBJ_Brush_and_Bucket_Brush
#

v  -5.0092 -0.0255 7.0437
v  -7.6274 -0.0255 6.6028
v  -7.6274 -0.0255 -6.8283
v  -10.5484 -0.0255 -7.4892
v  -10.5484 -0.0255 6.9729
v  -12.9118 -0.0255 -5.6323
v  -12.4727 -0.0255 5.0664
v  -15.1337 -0.0255 -3.0024
v  -14.6058 -0.0255 -0.0000
v  -15.1337 -0.0255 3.0024
v  5.0092 -0.0255 6.5351
v  3.5580 -0.0255 6.9252
v  3.5580 -0.0255 -6.9252
v  1.2575 -0.0255 -6.6571
v  1.2575 -0.0255 6.6571
v  -1.2576 -0.0255 7.2968
v  -1.2575 -0.0255 -5.3035
v  -3.5580 -0.0255 -6.9252
v  -3.5580 -0.0255 6.9252
v  -5.0092 -0.0255 -7.5600
v  14.9141 -0.0255 -0.0000
v  14.0373 -0.0255 3.0024
v  13.2972 -0.0255 -3.0024
v  12.9118 -0.0255 5.6323
v  12.9118 -0.0255 -5.6323
v  10.5484 -0.0255 -5.9239
v  10.5484 -0.0255 6.4643
v  7.6274 -0.0255 -8.1724
v  7.6274 -0.0255 7.1475
v  5.0092 -0.0255 -6.9303
v  -7.6274 10.7035 -5.7179
v  -7.6274 10.7035 5.7179
v  -5.7665 10.7035 5.2826
v  -9.4883 10.7035 -5.2826
v  -9.4883 10.7035 5.2826
v  -11.0659 10.7035 -4.0432
v  -11.0659 10.7035 4.0431
v  -12.1200 10.7035 -2.1881
v  -12.4901 10.7035 -0.0000
v  -12.1200 10.7035 2.1881
v  4.1890 10.7035 -4.5926
v  4.1890 10.7035 4.5925
v  5.7665 10.7035 5.2826
v  1.3963 10.7035 -4.2671
v  1.3963 10.7035 4.2671
v  -1.3963 10.7035 4.2671
v  -1.3963 10.7035 -4.2671
v  -4.1890 10.7035 -4.5926
v  -4.1890 10.7035 4.5925
v  -5.7665 10.7035 -5.2826
v  11.0659 10.7035 -4.0432
v  12.4901 10.7035 -0.0000
v  12.1200 10.7035 -2.1881
v  12.1200 10.7035 2.1881
v  11.0659 10.7035 4.0431
v  9.4883 10.7035 -5.2826
v  9.4883 10.7035 5.2826
v  7.6274 10.7035 -5.7179
v  7.6274 10.7035 5.7179
v  5.7665 10.7035 -5.2826
v  5.7665 6.3645 -5.2826
v  4.1890 6.3645 -4.5926
v  7.6274 6.3645 -5.7179
v  9.4883 6.3645 -5.2826
v  11.0659 6.3645 -4.0432
v  12.1200 6.3645 -2.1881
v  -5.7665 6.3645 -5.2826
v  -7.6274 6.3645 -5.7179
v  -4.1890 6.3645 -4.5926
v  -1.3963 6.3645 -4.2671
v  1.3963 6.3645 -4.2671
v  -12.4901 6.3645 -0.0000
v  -12.1200 6.3645 2.1881
v  -12.1200 6.3645 -2.1881
v  -11.0659 6.3645 -4.0432
v  -9.4883 6.3645 -5.2826
v  -5.7665 6.3645 5.2826
v  -4.1890 6.3645 4.5925
v  -7.6274 6.3645 5.7179
v  -9.4883 6.3645 5.2826
v  -11.0659 6.3645 4.0431
v  5.7665 6.3645 5.2826
v  7.6274 6.3645 5.7179
v  4.1890 6.3645 4.5925
v  1.3963 6.3645 4.2671
v  -1.3963 6.3645 4.2671
v  12.4901 6.3645 -0.0000
v  12.1200 6.3645 2.1881
v  11.0659 6.3645 4.0431
v  9.4883 6.3645 5.2826
v  11.1634 6.9645 -1.8474
v  11.4759 6.9645 -0.0000
v  11.1634 6.9645 1.8474
v  10.2935 6.9645 3.3782
v  9.0448 6.9645 4.3594
v  7.6274 6.9645 4.6909
v  6.0834 6.9645 4.3298
v  4.4530 6.9645 3.6165
v  1.4544 6.9645 3.2671
v  -1.4544 6.9645 3.2671
v  -4.4530 6.9645 3.6165
v  -6.0834 6.9645 4.3298
v  -7.6274 6.9645 4.6909
v  -9.0448 6.9645 4.3594
v  -10.2935 6.9645 3.3782
v  -11.1634 6.9645 1.8474
v  -11.4759 6.9645 -0.0000
v  -11.1634 6.9645 -1.8474
v  -10.2935 6.9645 -3.3782
v  -9.0448 6.9645 -4.3594
v  -7.6274 6.9645 -4.6909
v  -6.0834 6.9645 -4.3298
v  -4.4530 6.9645 -3.6165
v  -1.4544 6.9645 -3.2671
v  1.4544 6.9645 -3.2671
v  4.4530 6.9645 -3.6165
v  6.0834 6.9645 -4.3298
v  7.6274 6.9645 -4.6909
v  9.0448 6.9645 -4.3594
v  10.2935 6.9645 -3.3782
# 120 vertices

vn 0.0000 -1.0000 -0.0000
vn 0.0000 1.0000 -0.0000
vn -0.3156 0.0000 -0.9489
vn -0.2611 0.0000 -0.9653
vn 0.0000 0.0000 -1.0000
vn -0.0000 0.0000 -1.0000
vn 0.4330 0.0000 -0.9014
vn 0.3171 0.0000 -0.9484
vn 0.7578 0.0000 -0.6524
vn 0.6178 0.0000 -0.7864
vn 0.8694 0.0000 -0.4940
vn 0.3156 0.0000 -0.9489
vn 0.2611 0.0000 -0.9653
vn 0.0580 0.0000 -0.9983
vn -0.0580 0.0000 -0.9983
vn -1.0000 0.0000 -0.0000
vn -0.9420 0.0000 0.3355
vn -0.9420 0.0000 -0.3355
vn -0.7578 0.0000 -0.6524
vn -0.4330 0.0000 -0.9014
vn 0.3156 0.0000 0.9489
vn 0.2611 0.0000 0.9653
vn -0.0000 0.0000 1.0000
vn 0.0000 0.0000 1.0000
vn -0.4330 0.0000 0.9014
vn -0.7578 0.0000 0.6524
vn -0.3156 0.0000 0.9489
vn -0.2611 0.0000 0.9653
vn -0.0580 0.0000 0.9983
vn 0.0580 0.0000 0.9983
vn 1.0000 0.0000 -0.0000
vn 0.9860 0.0000 -0.1668
vn 1.0000 0.0000 0.0000
vn 0.9420 0.0000 0.3355
vn 0.7578 0.0000 0.6524
vn 0.4330 0.0000 0.9014
vn 0.8329 0.3870 -0.3956
vn 0.9367 0.3121 -0.1585
vn 0.9177 0.3950 -0.0430
vn 0.8986 0.4289 -0.0928
vn 0.8506 0.4202 0.3160
vn 0.8541 0.4142 0.3144
vn 0.6924 0.4296 0.5796
vn 0.6398 0.4171 0.6455
vn 0.3647 0.3762 0.8518
vn 0.2681 0.3302 0.9050
vn 0.0000 0.3316 0.9434
vn 0.1647 0.3270 0.9305
vn -0.2957 0.3285 0.8970
vn -0.0092 0.3673 0.9300
vn -0.2155 0.3238 0.9213
vn -0.2070 0.3935 0.8957
vn 0.0516 0.4219 0.9052
vn -0.0521 0.4370 0.8980
vn 0.0378 0.4648 0.8846
vn 0.0722 0.4747 0.8772
vn 0.0652 0.4684 0.8811
vn 0.2110 0.4665 0.8590
vn -0.0239 0.4002 0.9161
vn 0.2697 0.4070 0.8727
vn -0.0063 0.3323 0.9431
vn -0.0431 0.3147 0.9482
vn -0.0417 0.2918 0.9556
vn -0.3633 0.3439 0.8659
vn -0.3079 0.3803 0.8721
vn -0.7074 0.3809 0.5955
vn -0.6232 0.3968 0.6740
vn -0.8199 0.4547 0.3479
vn -0.8169 0.4777 0.3233
vn -0.8925 0.4495 -0.0378
vn -0.8991 0.4371 -0.0244
vn -0.8424 0.4701 -0.2633
vn -0.8408 0.4948 -0.2196
vn -0.6549 0.4668 -0.5943
vn -0.6247 0.4417 -0.6440
vn -0.3878 0.4449 -0.8073
vn -0.2414 0.4078 -0.8806
vn 0.0534 0.3531 -0.9341
vn 0.0083 0.3342 -0.9424
vn 0.2427 0.3775 -0.8936
vn 0.0816 0.4284 -0.8999
vn 0.2345 0.4403 -0.8667
vn 0.4045 0.3755 -0.8339
vn 0.1053 0.3451 -0.9326
vn 0.1155 0.3552 -0.9276
vn -0.1040 0.3764 -0.9206
vn -0.2611 0.4272 -0.8656
vn -0.2345 0.4403 -0.8667
vn -0.0830 0.4037 -0.9111
vn -0.2665 0.3999 -0.8770
vn -0.1826 0.3836 -0.9053
vn -0.0245 0.4193 -0.9075
vn 0.0663 0.4131 -0.9083
vn 0.4487 0.3581 -0.8188
vn 0.3749 0.3284 -0.8670
vn 0.6657 0.3836 -0.6401
vn 0.6332 0.4048 -0.6597
vn 0.8242 0.4149 -0.3854
vn 0.9407 0.3099 -0.1379
# 99 vertex normals

vt 0.3374 0.0156 0.0156
vt 0.2510 0.0015 0.0015
vt 0.2510 0.3853 0.3853
vt 0.1543 0.3691 0.3691
vt 0.1543 0.0176 0.0176
vt 0.0762 0.3257 0.3257
vt 0.0762 0.0610 0.0610
vt 0.0267 0.2637 0.2637
vt 0.0099 0.1934 0.1934
vt 0.0267 0.1226 0.1226
vt 0.6689 0.0156 0.0156
vt 0.6211 0.0308 0.0308
vt 0.6211 0.3560 0.3560
vt 0.5449 0.3496 0.3496
vt 0.5449 0.0366 0.0366
vt 0.4617 0.0366 0.0366
vt 0.4617 0.3496 0.3496
vt 0.3855 0.3560 0.3560
vt 0.3855 0.0308 0.0308
vt 0.3374 0.3711 0.3711
vt 0.9966 0.1934 0.1934
vt 0.9800 0.1226 0.1226
vt 0.9800 0.2637 0.2637
vt 0.9302 0.0610 0.0610
vt 0.9302 0.3257 0.3257
vt 0.8521 0.3691 0.3691
vt 0.8521 0.0176 0.0176
vt 0.7554 0.3853 0.3853
vt 0.7554 0.0015 0.0015
vt 0.6689 0.3711 0.3711
vt 0.1860 0.9691 0.9691
vt 0.1855 0.5859 0.5859
vt 0.2450 0.6006 0.6006
vt 0.1202 0.9556 0.9556
vt 0.1202 0.5994 0.5994
vt 0.0676 0.9155 0.9155
vt 0.0676 0.6394 0.6394
vt 0.0309 0.8529 0.8529
vt 0.0178 0.7775 0.7775
vt 0.0309 0.7019 0.7019
vt 0.6885 0.9252 0.9252
vt 0.6885 0.6296 0.6296
vt 0.7573 0.6006 0.6006
vt 0.5625 0.9110 0.9110
vt 0.5625 0.6440 0.6440
vt 0.4399 0.6440 0.6440
vt 0.4399 0.9110 0.9110
vt 0.3135 0.9252 0.9252
vt 0.3135 0.6296 0.6296
vt 0.2450 0.9544 0.9544
vt 0.9346 0.9155 0.9155
vt 0.9844 0.7775 0.7775
vt 0.9712 0.8529 0.8529
vt 0.9712 0.7019 0.7019
vt 0.9346 0.6394 0.6394
vt 0.8818 0.9556 0.9556
vt 0.8818 0.5994 0.5994
vt 0.8223 0.9691 0.9691
vt 0.8223 0.5859 0.5859
vt 0.7573 0.9544 0.9544
vt 0.1189 0.4014 0.4014
vt 0.1296 0.4014 0.4014
vt 0.1296 0.5537 0.5537
vt 0.1189 0.5537 0.5537
vt 0.1055 0.4014 0.4014
vt 0.1055 0.5537 0.5537
vt 0.0833 0.4014 0.4014
vt 0.0833 0.5537 0.5537
vt 0.0501 0.4014 0.4014
vt 0.0501 0.5537 0.5537
vt 0.0029 0.4014 0.4014
vt 0.0029 0.5537 0.5537
vt 0.2659 0.4014 0.4014
vt 0.2793 0.4014 0.4014
vt 0.2793 0.5537 0.5537
vt 0.2659 0.5537 0.5537
vt 0.2551 0.4014 0.4014
vt 0.2551 0.5537 0.5537
vt 0.2159 0.4014 0.4014
vt 0.2159 0.5537 0.5537
vt 0.1688 0.4014 0.4014
vt 0.1688 0.5537 0.5537
vt 0.4417 0.4014 0.4014
vt 0.5010 0.4014 0.4014
vt 0.5010 0.5537 0.5537
vt 0.4417 0.5537 0.5537
vt 0.3821 0.4014 0.4014
vt 0.3821 0.5537 0.5537
vt 0.3347 0.4014 0.4014
vt 0.3347 0.5537 0.5537
vt 0.3015 0.4014 0.4014
vt 0.3015 0.5537 0.5537
vt 0.6172 0.4014 0.4014
vt 0.6279 0.4014 0.4014
vt 0.6279 0.5537 0.5537
vt 0.6172 0.5537 0.5537
vt 0.6035 0.4014 0.4014
vt 0.6035 0.5537 0.5537
vt 0.5815 0.4014 0.4014
vt 0.5815 0.5537 0.5537
vt 0.5483 0.4014 0.4014
vt 0.5483 0.5537 0.5537
vt 0.7642 0.4014 0.4014
vt 0.7773 0.4014 0.4014
vt 0.7773 0.5537 0.5537
vt 0.7642 0.5537 0.5537
vt 0.7534 0.4014 0.4014
vt 0.7534 0.5537 0.5537
vt 0.7144 0.4014 0.4014
vt 0.7144 0.5537 0.5537
vt 0.6670 0.5537 0.5537
vt 0.6670 0.4014 0.4014
vt 0.9399 0.4014 0.4014
vt 0.9995 0.4014 0.4014
vt 0.9995 0.5537 0.5537
vt 0.9399 0.5537 0.5537
vt 0.8804 0.4014 0.4014
vt 0.8804 0.5537 0.5537
vt 0.8330 0.4014 0.4014
vt 0.8330 0.5537 0.5537
vt 0.7998 0.4014 0.4014
vt 0.7998 0.5537 0.5537
vt 1.9951 0.0039 0.0039
vt 1.9941 0.3989 0.3989
vt 1.9229 0.3989 0.3989
vt 1.9229 0.0039 0.0039
vt 1.8242 0.3989 0.3989
vt 1.8232 0.0039 0.0039
vt 1.7686 0.3989 0.3989
vt 1.7793 0.0039 0.0039
vt 1.6738 0.3989 0.3989
vt 1.6855 0.0039 0.0039
vt 1.6299 0.3989 0.3989
vt 1.6357 0.0039 0.0039
vt 1.5977 0.3989 0.3989
vt 1.5830 0.0039 0.0039
vt 1.5547 0.3989 0.3989
vt 1.5361 0.0039 0.0039
vt 1.4668 0.3989 0.3989
vt 1.4688 0.0039 0.0039
vt 1.3906 0.3989 0.3989
vt 1.3887 0.0039 0.0039
vt 1.3145 0.3989 0.3989
vt 1.3135 0.0039 0.0039
vt 1.2529 0.3989 0.3989
vt 1.2813 0.0039 0.0039
vt 1.2217 0.3989 0.3989
vt 1.2266 0.0039 0.0039
vt 1.1445 0.3989 0.3989
vt 1.1611 0.0039 0.0039
vt 1.0811 0.3989 0.3989
vt 1.0762 0.0039 0.0039
vt 0.9429 0.3989 0.3989
vt 0.9673 0.0039 0.0039
vt 0.8955 0.3989 0.3989
vt 0.8955 0.0039 0.0039
vt 0.8037 0.3989 0.3989
vt 0.7793 0.0039 0.0039
vt 0.6758 0.3989 0.3989
vt 0.6709 0.0039 0.0039
vt 0.5767 0.3989 0.3989
vt 0.5864 0.0039 0.0039
vt 0.5308 0.3989 0.3989
vt 0.5317 0.0039 0.0039
vt 0.4790 0.3989 0.3989
vt 0.4824 0.0039 0.0039
vt 0.4285 0.3989 0.3989
vt 0.4280 0.0039 0.0039
vt 0.3672 0.4038 0.4038
vt 0.3777 0.0088 0.0088
vt 0.3179 0.3989 0.3989
vt 0.3208 0.0039 0.0039
vt 0.2578 0.3989 0.3989
vt 0.2610 0.0039 0.0039
vt 0.2361 0.3989 0.3989
vt 0.2351 0.0039 0.0039
vt 0.2109 0.3989 0.3989
vt 0.1917 0.0039 0.0039
vt 0.1447 0.3989 0.3989
vt 0.1271 0.0039 0.0039
vt 0.0825 0.3989 0.3989
vt 0.0815 0.0039 0.0039
vt 0.0019 0.3989 0.3989
vt 0.0028 0.0039 0.0039
# 184 texture coords

g OBJ_Brush_and_Bucket_Brush
usemtl OBJ_Brush_and_Bucket_Brush_MAT
s 1
f 1/1/1 2/2/1 3/3/1 
s 2
f 4/4/1 3/3/1 2/2/1 
s 3
f 2/2/1 5/5/1 4/4/1 
s 4
f 6/6/1 4/4/1 5/5/1 
s 5
f 5/5/1 7/7/1 6/6/1 
s 6
f 8/8/1 6/6/1 7/7/1 
s 7
f 9/9/1 8/8/1 7/7/1 
s 8
f 9/9/1 7/7/1 10/10/1 
s 9
f 11/11/1 12/12/1 13/13/1 
s 10
f 14/14/1 13/13/1 12/12/1 
s 11
f 12/12/1 15/15/1 14/14/1 
s 12
f 14/14/1 15/15/1 16/16/1 
s 13
f 16/16/1 17/17/1 14/14/1 
s 14
f 18/18/1 17/17/1 16/16/1 
s 15
f 16/16/1 19/19/1 18/18/1 
s 16
f 20/20/1 18/18/1 19/19/1 
s 17
f 19/19/1 1/1/1 20/20/1 
s 18
f 3/3/1 20/20/1 1/1/1 
s 19
f 21/21/1 22/22/1 23/23/1 
s 20
f 22/22/1 24/24/1 23/23/1 
s 21
f 24/24/1 25/25/1 23/23/1 
s 22
f 26/26/1 25/25/1 24/24/1 
s 23
f 24/24/1 27/27/1 26/26/1 
s 24
f 28/28/1 26/26/1 27/27/1 
s 25
f 27/27/1 29/29/1 28/28/1 
s 26
f 30/30/1 28/28/1 29/29/1 
s 27
f 29/29/1 11/11/1 30/30/1 
s 28
f 13/13/1 30/30/1 11/11/1 
s 29
f 31/31/2 32/32/2 33/33/2 
s 30
f 32/32/2 31/31/2 34/34/2 
s 31
f 34/34/2 35/35/2 32/32/2 
s 32
f 35/35/2 34/34/2 36/36/2 
s 33
f 36/36/2 37/37/2 35/35/2 
s 34
f 37/37/2 36/36/2 38/38/2 
s 35
f 37/37/2 38/38/2 39/39/2 
s 36
f 37/37/2 39/39/2 40/40/2 
s 37
f 41/41/2 42/42/2 43/43/2 
s 38
f 42/42/2 41/41/2 44/44/2 
s 39
f 44/44/2 45/45/2 42/42/2 
s 40
f 46/46/2 45/45/2 44/44/2 
s 41
f 44/44/2 47/47/2 46/46/2 
s 42
f 46/46/2 47/47/2 48/48/2 
s 43
f 48/48/2 49/49/2 46/46/2 
s 44
f 49/49/2 48/48/2 50/50/2 
s 45
f 50/50/2 33/33/2 49/49/2 
s 46
f 33/33/2 50/50/2 31/31/2 
s 47
f 51/51/2 52/52/2 53/53/2 
s 48
f 51/51/2 54/54/2 52/52/2 
s 49
f 51/51/2 55/55/2 54/54/2 
s 50
f 55/55/2 51/51/2 56/56/2 
s 51
f 56/56/2 57/57/2 55/55/2 
s 52
f 57/57/2 56/56/2 58/58/2 
s 53
f 58/58/2 59/59/2 57/57/2 
s 54
f 59/59/2 58/58/2 60/60/2 
s 55
f 60/60/2 43/43/2 59/59/2 
s 56
f 43/43/2 60/60/2 41/41/2 
s 57
f 61/61/3 62/62/4 41/63/4 
s 58
f 41/63/4 60/64/3 61/61/3 
s 59
f 63/65/5 61/61/3 60/64/3 
s 60
f 60/64/3 58/66/6 63/65/5 
s 61
f 64/67/7 63/65/5 58/66/6 
s 62
f 58/66/6 56/68/8 64/67/7 
s 63
f 65/69/9 64/67/7 56/68/8 
s 64
f 56/68/10 51/70/9 65/69/9 
s 65
f 66/71/11 65/69/9 51/70/9 
s 66
f 51/70/9 53/72/11 66/71/11 
s 67
f 67/73/12 68/74/5 31/75/6 
s 68
f 31/75/6 50/76/12 67/73/12 
s 69
f 69/77/13 67/73/12 50/76/12 
s 70
f 50/76/12 48/78/13 69/77/13 
s 71
f 70/79/14 69/77/13 48/78/13 
s 72
f 48/78/13 47/80/14 70/79/14 
s 73
f 71/81/15 70/79/14 47/80/14 
s 74
f 47/80/14 44/82/15 71/81/15 
s 75
f 71/81/15 44/82/15 41/63/4 
s 76
f 41/63/4 62/62/4 71/81/15 
s 77
f 72/83/16 73/84/17 40/85/17 
s 78
f 40/85/17 39/86/16 72/83/16 
s 79
f 74/87/18 72/83/16 39/86/16 
s 80
f 39/86/16 38/88/18 74/87/18 
s 81
f 75/89/19 74/87/18 38/88/18 
s 82
f 38/88/18 36/90/19 75/89/19 
s 83
f 76/91/20 75/89/19 36/90/19 
s 84
f 36/90/19 34/92/20 76/91/20 
s 85
f 68/74/5 76/91/20 34/92/20 
s 86
f 34/92/20 31/75/6 68/74/5 
s 87
f 77/93/21 78/94/22 49/95/22 
s 88
f 49/95/22 33/96/21 77/93/21 
s 89
f 79/97/23 77/93/21 33/96/21 
s 90
f 33/96/21 32/98/24 79/97/23 
s 91
f 80/99/25 79/97/23 32/98/24 
s 92
f 32/98/24 35/100/25 80/99/25 
s 93
f 81/101/26 80/99/25 35/100/25 
s 94
f 35/100/25 37/102/26 81/101/26 
s 95
f 73/84/17 81/101/26 37/102/26 
s 96
f 37/102/26 40/85/17 73/84/17 
s 97
f 82/103/27 83/104/23 59/105/24 
s 98
f 59/105/24 43/106/27 82/103/27 
s 99
f 84/107/28 82/103/27 43/106/27 
s 100
f 43/106/27 42/108/28 84/107/28 
s 101
f 85/109/29 84/107/28 42/108/28 
s 102
f 42/108/28 45/110/29 85/109/29 
s 103
f 85/109/29 45/110/29 46/111/30 
s 104
f 46/111/30 86/112/30 85/109/29 
s 105
f 86/112/30 46/111/30 49/95/22 
s 106
f 49/95/22 78/94/22 86/112/30 
s 107
f 87/113/31 66/114/32 53/115/32 
s 108
f 53/115/32 52/116/33 87/113/31 
s 109
f 88/117/34 87/113/31 52/116/33 
s 110
f 52/116/33 54/118/34 88/117/34 
s 111
f 89/119/35 88/117/34 54/118/34 
s 112
f 54/118/34 55/120/35 89/119/35 
s 113
f 90/121/36 89/119/35 55/120/35 
s 114
f 55/120/35 57/122/36 90/121/36 
s 115
f 83/104/23 90/121/36 57/122/36 
s 116
f 57/122/36 59/105/24 83/104/23 
s 117
f 23/123/37 91/124/38 92/125/39 
s 118
f 92/125/39 21/126/40 23/123/37 
s 119
f 21/126/40 92/125/39 93/127/41 
s 120
f 93/127/41 22/128/42 21/126/40 
s 121
f 22/128/42 93/127/41 94/129/43 
s 122
f 94/129/43 24/130/44 22/128/42 
s 123
f 24/130/44 94/129/43 95/131/45 
s 124
f 95/131/45 27/132/46 24/130/44 
s 125
f 27/132/46 95/131/45 96/133/47 
s 126
f 96/133/47 29/134/48 27/132/46 
s 127
f 29/134/48 96/133/47 97/135/49 
s 128
f 97/135/49 11/136/50 29/134/51 
s 129
f 11/136/50 97/135/49 98/137/52 
s 130
f 98/137/52 12/138/53 11/136/50 
s 131
f 12/138/53 98/137/52 99/139/54 
s 132
f 99/139/54 15/140/55 12/138/53 
s 133
f 15/140/55 99/139/54 100/141/56 
s 134
f 100/141/56 16/142/57 15/140/55 
s 135
f 16/142/57 100/141/56 101/143/58 
s 136
f 101/143/58 19/144/59 16/142/57 
s 137
f 19/144/59 101/143/58 102/145/60 
s 138
f 102/145/60 1/146/61 19/144/59 
s 139
f 1/146/61 102/145/60 103/147/62 
s 140
f 103/147/62 2/148/63 1/146/61 
s 141
f 2/148/63 103/147/62 104/149/64 
s 142
f 104/149/64 5/150/65 2/148/63 
s 143
f 5/150/65 104/149/64 105/151/66 
s 144
f 105/151/66 7/152/67 5/150/65 
s 145
f 7/152/67 105/151/66 106/153/68 
s 146
f 106/153/68 10/154/69 7/152/67 
s 147
f 10/154/69 106/153/68 107/155/70 
s 148
f 107/155/70 9/156/71 10/154/69 
s 149
f 9/156/71 107/155/70 108/157/72 
s 150
f 108/157/72 8/158/73 9/156/71 
s 151
f 8/158/73 108/157/72 109/159/74 
s 152
f 109/159/74 6/160/75 8/158/73 
s 153
f 6/160/75 109/159/74 110/161/76 
s 154
f 110/161/76 4/162/77 6/160/75 
s 155
f 4/162/77 110/161/76 111/163/78 
s 156
f 111/163/78 3/164/79 4/162/77 
s 157
f 3/164/79 111/163/78 112/165/80 
s 158
f 112/165/80 20/166/81 3/164/79 
s 159
f 20/166/81 112/165/80 113/167/82 
s 160
f 113/167/82 18/168/83 20/166/81 
s 161
f 18/168/83 113/167/82 114/169/84 
s 162
f 114/169/84 17/170/85 18/168/83 
s 163
f 17/170/85 114/169/84 115/171/86 
s 164
f 115/171/86 14/172/87 17/170/85 
s 165
f 14/172/87 115/171/86 116/173/88 
s 166
f 116/173/88 13/174/89 14/172/87 
s 167
f 13/174/89 116/173/88 117/175/90 
s 168
f 117/175/90 30/176/91 13/174/89 
s 169
f 30/176/91 117/175/90 118/177/92 
s 170
f 118/177/92 28/178/93 30/176/91 
s 171
f 28/178/93 118/177/92 119/179/94 
s 172
f 119/179/94 26/180/95 28/178/93 
s 173
f 26/180/95 119/179/94 120/181/96 
s 174
f 120/181/96 25/182/97 26/180/95 
s 175
f 25/182/97 120/181/96 91/183/98 
s 176
f 91/183/98 23/184/99 25/182/97 
# 0 polygons - 176 triangles

