# Blender v2.76 (sub 0) OBJ File: 'goal.blend'
# www.blender.org
mtllib goal1.mtl
o Plane
v -0.026691 0.317693 5.460738
v 0.026691 -0.491108 5.460738
v -0.026691 0.270590 -5.460738
v 0.026691 -0.538211 -5.460738
v -0.026691 0.598607 3.970032
v 0.026691 -0.210194 3.980989
v -0.026691 0.598607 -3.752948
v 0.026691 -0.210194 -3.650202
v 0.026691 -0.074950 2.848839
v -0.026691 0.733851 2.807099
v 0.026691 -0.074950 -2.317133
v -0.026691 0.733851 -2.290546
v 0.026691 -0.368430 4.525998
v -0.026691 0.455992 4.399169
v -0.026691 0.424630 -4.106158
v 0.026691 -0.404205 -4.211440
vt 0.714088 0.074532
vt 0.099102 0.068746
vt 0.000092 0.000092
vt 0.600275 0.000092
vt 0.737259 0.541937
vt 0.125534 0.548907
vt 0.242447 0.518957
vt 0.842630 0.518354
vt 0.942554 0.174308
vt 0.342371 0.172847
vt 0.242447 0.099589
vt 0.842630 0.093943
vt 0.342371 0.456740
vt 0.942554 0.454446
vt 0.942738 0.600236
vt 0.949576 0.000092
vt 0.999908 0.091312
vt 0.999908 0.703076
vn 0.997800 0.065500 -0.007200
vn 0.997500 0.067000 0.020700
vn 0.997800 0.065600 -0.006300
vn 0.997800 0.066100 0.007800
vn 0.997800 0.065900 0.000000
vn 0.997800 0.065900 0.008600
vn 0.997500 0.065100 -0.026200
usemtl Material
s off
f 15/1/1 16/2/1 4/3/1 3/4/1
f 14/5/2 13/6/2 6/7/2 5/8/2
f 12/9/3 11/10/3 8/11/3 7/12/3
f 5/8/4 6/7/4 9/13/4 10/14/4
f 10/14/5 9/13/5 11/10/5 12/9/5
f 1/15/6 2/16/6 13/17/6 14/18/6
f 7/12/7 8/11/7 16/2/7 15/1/7
