# Blender v2.77 (sub 0) OBJ File: 'bend.blend'
# www.blender.org
mtllib big_bend_angled.mtl
o Cylinder_Cylinder.001
v -0.000000 -0.050000 1.000000
v -0.000000 0.350000 1.000000
v -0.195091 -0.050000 0.980785
v -0.195091 0.350000 0.980785
v -0.382684 -0.050000 0.923879
v -0.382684 0.350000 0.923879
v -0.555571 -0.050000 0.831469
v -0.555571 0.350000 0.831469
v -0.707107 -0.050000 0.707106
v -0.707107 0.350000 0.707106
v -0.831470 -0.050000 0.555570
v -0.831470 0.350000 0.555570
v -0.923880 -0.050000 0.382683
v -0.923880 0.350000 0.382683
v -0.980785 -0.050000 0.195089
v -0.980785 0.350000 0.195089
v -1.000000 -0.050000 -0.000001
v -1.000000 0.350000 -0.000001
v -0.000000 -0.050000 0.500015
v -0.000000 0.050000 0.500015
v -0.097554 -0.050000 0.490399
v -0.097554 0.050000 0.490399
v -0.191348 -0.050000 0.461951
v -0.191348 0.050000 0.461951
v -0.277791 -0.050000 0.415746
v -0.277791 0.050000 0.415746
v -0.353566 -0.050000 0.353565
v -0.353566 0.050000 0.353565
v -0.415747 -0.050000 0.277790
v -0.415747 0.050000 0.277790
v -0.461952 -0.050000 0.191347
v -0.461952 0.050000 0.191347
v -0.490399 -0.050000 0.097552
v -0.490399 0.050000 0.097552
v -0.500015 -0.050000 -0.000001
v -0.500015 0.050000 -0.000001
vn -0.0980 0.0000 0.9952
vn -0.2903 0.0000 0.9569
vn -0.4714 0.0000 0.8819
vn -0.6344 0.0000 0.7730
vn -0.7730 0.0000 0.6344
vn -0.8819 0.0000 0.4714
vn -0.9569 0.0000 0.2903
vn -0.9952 0.0000 0.0980
vn 0.0981 0.0000 -0.9952
vn 0.2902 0.0000 -0.9570
vn 0.4714 0.0000 -0.8819
vn 0.6344 0.0000 -0.7730
vn 0.7730 0.0000 -0.6344
vn 0.8819 0.0000 -0.4714
vn 0.9570 0.0000 -0.2902
vn 0.9952 0.0000 -0.0981
vn 1.0000 0.0000 0.0000
vn 0.0000 0.0000 -1.0000
vn 0.0000 -1.0000 0.0000
vn 0.0506 0.8564 -0.5138
vn 0.1499 0.8564 -0.4941
vn 0.2434 0.8564 -0.4554
vn 0.3276 0.8564 -0.3991
vn 0.3991 0.8564 -0.3276
vn 0.4554 0.8564 -0.2434
vn 0.4941 0.8564 -0.1499
vn 0.5138 0.8564 -0.0506
usemtl None
s off
f 1//1 2//1 4//1 3//1
f 3//2 4//2 6//2 5//2
f 5//3 6//3 8//3 7//3
f 7//4 8//4 10//4 9//4
f 9//5 10//5 12//5 11//5
f 11//6 12//6 14//6 13//6
f 13//7 14//7 16//7 15//7
f 15//8 16//8 18//8 17//8
f 21//9 22//9 20//9 19//9
f 23//10 24//10 22//10 21//10
f 25//11 26//11 24//11 23//11
f 27//12 28//12 26//12 25//12
f 29//13 30//13 28//13 27//13
f 31//14 32//14 30//14 29//14
f 33//15 34//15 32//15 31//15
f 35//16 36//16 34//16 33//16
f 1//17 19//17 20//17 2//17
f 17//18 18//18 36//18 35//18
f 1//19 3//19 21//19 19//19
f 4//20 2//20 20//20 22//20
f 3//19 5//19 23//19 21//19
f 6//21 4//21 22//21 24//21
f 5//19 7//19 25//19 23//19
f 8//22 6//22 24//22 26//22
f 7//19 9//19 27//19 25//19
f 10//23 8//23 26//23 28//23
f 9//19 11//19 29//19 27//19
f 12//24 10//24 28//24 30//24
f 11//19 13//19 31//19 29//19
f 14//25 12//25 30//25 32//25
f 13//19 15//19 33//19 31//19
f 16//26 14//26 32//26 34//26
f 15//19 17//19 35//19 33//19
f 18//27 16//27 34//27 36//27
